<svg width="76" height="74" viewBox="0 0 76 74" fill="none" xmlns="http://www.w3.org/2000/svg">
<rect width="76" height="74" rx="30" fill="url(#paint0_linear_1_14)"/>
<ellipse cx="29.5" cy="28.5" rx="19.5" ry="17.5" fill="url(#paint1_linear_1_14)"/>
<ellipse cx="34.5" cy="34.5" rx="19.5" ry="17.5" fill="url(#paint2_linear_1_14)"/>
<ellipse cx="43.5" cy="43.5" rx="19.5" ry="17.5" fill="url(#paint3_linear_1_14)"/>
<path d="M33.9119 44H33.767C33.7401 43.8551 33.6875 43.7074 33.6094 43.5568C33.5312 43.4062 33.4276 43.267 33.2983 43.1392C33.169 43.0114 33.0163 42.9084 32.8402 42.8303C32.6641 42.7521 32.4645 42.7131 32.2415 42.7131C31.9432 42.7131 31.6669 42.7947 31.4126 42.9581C31.1598 43.12 30.956 43.358 30.8011 43.6719C30.6477 43.9844 30.571 44.3665 30.571 44.8182C30.571 45.2756 30.6477 45.6605 30.8011 45.973C30.956 46.2855 31.1598 46.522 31.4126 46.6825C31.6669 46.843 31.9432 46.9233 32.2415 46.9233C32.4645 46.9233 32.6641 46.8849 32.8402 46.8082C33.0163 46.7301 33.169 46.6278 33.2983 46.5014C33.4276 46.3736 33.5312 46.2344 33.6094 46.0838C33.6875 45.9318 33.7401 45.7827 33.767 45.6364H33.9119C33.8849 45.7898 33.831 45.9496 33.75 46.1158C33.669 46.2805 33.5597 46.4347 33.4219 46.5781C33.2841 46.7216 33.1172 46.8381 32.9212 46.9276C32.7251 47.0156 32.4986 47.0597 32.2415 47.0597C31.8835 47.0597 31.5689 46.9659 31.2976 46.7784C31.0263 46.5909 30.8146 46.3288 30.6626 45.9922C30.5107 45.6555 30.4347 45.2642 30.4347 44.8182C30.4347 44.3722 30.5107 43.9808 30.6626 43.6442C30.8146 43.3075 31.0263 43.0455 31.2976 42.858C31.5689 42.6705 31.8835 42.5767 32.2415 42.5767C32.4986 42.5767 32.7251 42.6207 32.9212 42.7088C33.1172 42.7969 33.2841 42.9126 33.4219 43.0561C33.5597 43.1982 33.669 43.3523 33.75 43.5185C33.831 43.6832 33.8849 43.8438 33.9119 44ZM35.0518 44.8011V47H34.9155V42.6364H35.0518V44.2472H35.0689C35.1456 44.0767 35.2713 43.9403 35.446 43.8381C35.6222 43.7358 35.8232 43.6847 36.049 43.6847C36.2678 43.6847 36.4609 43.7322 36.6286 43.8274C36.7962 43.9226 36.9276 44.054 37.0227 44.2216C37.1179 44.3892 37.1655 44.5824 37.1655 44.8011V47H37.0291V44.8011C37.0291 44.5114 36.9382 44.2756 36.7564 44.0938C36.5746 43.9119 36.3388 43.821 36.049 43.821C35.8558 43.821 35.6839 43.8629 35.5334 43.9467C35.3842 44.0305 35.2663 44.1463 35.1797 44.294C35.0945 44.4418 35.0518 44.6108 35.0518 44.8011ZM39.1438 47.0682C38.9648 47.0682 38.7994 47.0313 38.6474 46.9574C38.4968 46.8835 38.3754 46.7756 38.283 46.6335C38.1921 46.4915 38.1467 46.3182 38.1467 46.1136C38.1467 46.0028 38.1644 45.8991 38.1999 45.8026C38.2354 45.7045 38.2979 45.6158 38.3874 45.5362C38.4769 45.4567 38.6019 45.3885 38.7624 45.3317C38.9244 45.2749 39.131 45.2315 39.3825 45.2017C39.533 45.1847 39.6751 45.1648 39.8086 45.142C39.9421 45.1193 40.0508 45.0852 40.1346 45.0398C40.2184 44.9943 40.2603 44.929 40.2603 44.8438V44.6477C40.2603 44.3963 40.1758 44.1946 40.0067 44.0426C39.8377 43.8892 39.6126 43.8125 39.3313 43.8125C39.1012 43.8125 38.9002 43.8636 38.7283 43.9659C38.5565 44.0668 38.4364 44.2088 38.3683 44.392L38.2404 44.3409C38.2915 44.2045 38.3704 44.0866 38.4769 43.9872C38.5835 43.8878 38.7099 43.8111 38.8562 43.7571C39.0025 43.7031 39.1609 43.6761 39.3313 43.6761C39.4975 43.6761 39.646 43.701 39.7766 43.7507C39.9087 43.799 40.021 43.8672 40.1133 43.9553C40.2056 44.0419 40.2759 44.1442 40.3242 44.2621C40.3725 44.38 40.3967 44.5085 40.3967 44.6477V47H40.2603V46.3352H40.2433C40.1751 46.483 40.0863 46.6122 39.9769 46.723C39.869 46.8324 39.744 46.9176 39.6019 46.9787C39.4613 47.0384 39.3086 47.0682 39.1438 47.0682ZM39.1438 46.9318C39.3512 46.9318 39.5394 46.8764 39.7085 46.7656C39.8775 46.6534 40.0117 46.4979 40.1112 46.299C40.2106 46.0987 40.2603 45.8665 40.2603 45.6023V45.108C40.2205 45.1378 40.1722 45.1641 40.1154 45.1868C40.06 45.2095 39.9968 45.2301 39.9258 45.2486C39.8562 45.2656 39.7802 45.2805 39.6978 45.2933C39.6154 45.3061 39.5273 45.3182 39.4336 45.3295C39.141 45.3636 38.9109 45.4155 38.7433 45.4851C38.5756 45.5547 38.457 45.642 38.3874 45.7472C38.3178 45.8523 38.283 45.9744 38.283 46.1136C38.283 46.3608 38.3654 46.5589 38.5302 46.7081C38.6964 46.8572 38.9009 46.9318 39.1438 46.9318ZM42.5945 43.7273V43.8636H41.299V43.7273H42.5945ZM41.7763 42.9432H41.9126V46.3097C41.9126 46.4375 41.9411 46.5476 41.9979 46.6399C42.0547 46.7308 42.13 46.8011 42.2237 46.8509C42.3175 46.8991 42.4183 46.9233 42.5263 46.9233C42.5675 46.9233 42.6051 46.9197 42.6392 46.9126C42.6747 46.9055 42.7109 46.8949 42.7479 46.8807L42.7905 47.0085C42.7479 47.0241 42.706 47.0362 42.6648 47.0447C42.6236 47.0547 42.5774 47.0597 42.5263 47.0597C42.3928 47.0597 42.2685 47.0291 42.1534 46.968C42.0398 46.907 41.9482 46.8203 41.8786 46.7081C41.8104 46.5959 41.7763 46.4631 41.7763 46.3097V42.9432ZM46.044 47L45.0724 43.7273H45.2173L46.1293 46.8125H46.1463L47.0668 43.7273H47.2031L48.1236 46.8125H48.1406L49.0526 43.7273H49.1974L48.2259 47H48.0384L47.1435 43.983H47.1264L46.2315 47H46.044ZM50.1025 47V43.7273H50.2388V47H50.1025ZM50.1706 43.1307C50.1337 43.1307 50.1017 43.1172 50.0748 43.0902C50.0478 43.0632 50.0343 43.0312 50.0343 42.9943C50.0343 42.9574 50.0478 42.9254 50.0748 42.8984C50.1017 42.8714 50.1337 42.858 50.1706 42.858C50.2076 42.858 50.2395 42.8714 50.2665 42.8984C50.2935 42.9254 50.307 42.9574 50.307 42.9943C50.307 43.0312 50.2935 43.0632 50.2665 43.0902C50.2395 43.1172 50.2076 43.1307 50.1706 43.1307ZM52.4382 43.7273V43.8636H51.1428V43.7273H52.4382ZM51.62 42.9432H51.7564V46.3097C51.7564 46.4375 51.7848 46.5476 51.8416 46.6399C51.8984 46.7308 51.9737 46.8011 52.0675 46.8509C52.1612 46.8991 52.2621 46.9233 52.37 46.9233C52.4112 46.9233 52.4489 46.9197 52.483 46.9126C52.5185 46.9055 52.5547 46.8949 52.5916 46.8807L52.6342 47.0085C52.5916 47.0241 52.5497 47.0362 52.5085 47.0447C52.4673 47.0547 52.4212 47.0597 52.37 47.0597C52.2365 47.0597 52.1122 47.0291 51.9972 46.968C51.8835 46.907 51.7919 46.8203 51.7223 46.7081C51.6541 46.5959 51.62 46.4631 51.62 46.3097V42.9432ZM53.7081 44.8011V47H53.5717V42.6364H53.7081V44.2472H53.7251C53.8018 44.0767 53.9276 43.9403 54.1023 43.8381C54.2784 43.7358 54.4794 43.6847 54.7053 43.6847C54.924 43.6847 55.1172 43.7322 55.2848 43.8274C55.4524 43.9226 55.5838 44.054 55.679 44.2216C55.7741 44.3892 55.8217 44.5824 55.8217 44.8011V47H55.6854V44.8011C55.6854 44.5114 55.5945 44.2756 55.4126 44.0938C55.2308 43.9119 54.995 43.821 54.7053 43.821C54.5121 43.821 54.3402 43.8629 54.1896 43.9467C54.0405 44.0305 53.9226 44.1463 53.8359 44.294C53.7507 44.4418 53.7081 44.6108 53.7081 44.8011Z" fill="black"/>
<path d="M36.6818 49.6364H36.8011L38.5824 53.7955H38.5994L40.3807 49.6364H40.5V54H40.3636V50.0625H40.3466L38.6591 54H38.5227L36.8352 50.0625H36.8182V54H36.6818V49.6364ZM42.9865 54.0682C42.701 54.0682 42.451 53.9936 42.2365 53.8445C42.0234 53.6953 41.858 53.4929 41.7401 53.2372C41.6222 52.9815 41.5632 52.6932 41.5632 52.3722C41.5632 52.0511 41.6222 51.7628 41.7401 51.5071C41.8594 51.2514 42.0213 51.049 42.2259 50.8999C42.4304 50.7507 42.6612 50.6761 42.9183 50.6761C43.1087 50.6761 43.2848 50.7166 43.4467 50.7976C43.6101 50.8786 43.7521 50.9908 43.8729 51.1342C43.9936 51.2777 44.0874 51.4432 44.1541 51.6307C44.2223 51.8168 44.2564 52.0156 44.2564 52.2273V52.3636H41.6314V52.2273H44.12C44.12 51.9645 44.0661 51.7266 43.9581 51.5135C43.8501 51.299 43.7053 51.1286 43.5234 51.0021C43.3416 50.8757 43.1399 50.8125 42.9183 50.8125C42.6939 50.8125 42.4908 50.8793 42.3089 51.0128C42.1271 51.1463 41.9815 51.3281 41.8722 51.5582C41.7628 51.7884 41.7053 52.0483 41.6996 52.3381V52.3551C41.6996 52.6406 41.7493 52.9034 41.8487 53.1435C41.9496 53.3821 42.0959 53.5732 42.2876 53.7166C42.4794 53.8601 42.7124 53.9318 42.9865 53.9318C43.1882 53.9318 43.3572 53.8963 43.4936 53.8253C43.6314 53.7543 43.7415 53.6726 43.8239 53.5803C43.9077 53.4879 43.9695 53.4091 44.0092 53.3438L44.12 53.4205C44.0717 53.5028 43.9993 53.5945 43.9027 53.6953C43.8061 53.7962 43.6825 53.8835 43.532 53.9574C43.3814 54.0313 43.1996 54.0682 42.9865 54.0682ZM45.4011 54.0256C45.3585 54.0256 45.3223 54.0107 45.2924 53.9808C45.2626 53.951 45.2477 53.9148 45.2477 53.8722C45.2477 53.8295 45.2626 53.7933 45.2924 53.7635C45.3223 53.7337 45.3585 53.7188 45.4011 53.7188C45.4437 53.7188 45.4799 53.7337 45.5098 53.7635C45.5396 53.7933 45.5545 53.8295 45.5545 53.8722C45.5545 53.9006 45.5474 53.9268 45.5332 53.951C45.5204 53.9737 45.502 53.9915 45.4778 54.0043C45.4551 54.0185 45.4295 54.0256 45.4011 54.0256ZM46.9187 54.0256C46.8761 54.0256 46.8398 54.0107 46.81 53.9808C46.7802 53.951 46.7653 53.9148 46.7653 53.8722C46.7653 53.8295 46.7802 53.7933 46.81 53.7635C46.8398 53.7337 46.8761 53.7188 46.9187 53.7188C46.9613 53.7188 46.9975 53.7337 47.0273 53.7635C47.0572 53.7933 47.0721 53.8295 47.0721 53.8722C47.0721 53.9006 47.065 53.9268 47.0508 53.951C47.038 53.9737 47.0195 53.9915 46.9954 54.0043C46.9727 54.0185 46.9471 54.0256 46.9187 54.0256ZM48.4363 54.0256C48.3936 54.0256 48.3574 54.0107 48.3276 53.9808C48.2978 53.951 48.2828 53.9148 48.2828 53.8722C48.2828 53.8295 48.2978 53.7933 48.3276 53.7635C48.3574 53.7337 48.3936 53.7188 48.4363 53.7188C48.4789 53.7188 48.5151 53.7337 48.5449 53.7635C48.5748 53.7933 48.5897 53.8295 48.5897 53.8722C48.5897 53.9006 48.5826 53.9268 48.5684 53.951C48.5556 53.9737 48.5371 53.9915 48.513 54.0043C48.4902 54.0185 48.4647 54.0256 48.4363 54.0256Z" fill="black"/>
<defs>
<linearGradient id="paint0_linear_1_14" x1="38" y1="0" x2="38" y2="74" gradientUnits="userSpaceOnUse">
<stop stop-color="#D9D9D9"/>
<stop offset="0.92" stop-color="#AFC3D9"/>
<stop offset="1" stop-color="#0D3354"/>
</linearGradient>
<linearGradient id="paint1_linear_1_14" x1="29.5" y1="11" x2="29.5" y2="46" gradientUnits="userSpaceOnUse">
<stop stop-color="white"/>
<stop offset="1" stop-color="#E0C0C0"/>
</linearGradient>
<linearGradient id="paint2_linear_1_14" x1="34.5" y1="17" x2="34.5" y2="52" gradientUnits="userSpaceOnUse">
<stop stop-color="white"/>
<stop offset="1" stop-color="#E0C0C0"/>
</linearGradient>
<linearGradient id="paint3_linear_1_14" x1="43.5" y1="26" x2="43.5" y2="61" gradientUnits="userSpaceOnUse">
<stop stop-color="white"/>
<stop offset="1" stop-color="#E0C0C0"/>
</linearGradient>
</defs>
</svg>
